<?xml version="1.0" standalone="no"?>
<svg viewBox="0 0 200 200" xmlns="http://www.w3.org/2000/svg">
  <path fill="#FF0066" d="M22.8,-40.6C28.3,-36.4,30.5,-27.6,42.3,-20.1C54,-12.6,75.3,-6.3,78.4,1.8C81.5,9.9,66.5,19.8,57.9,32.8C49.3,45.9,47.3,62.1,38.7,68C30.2,73.8,15.1,69.2,0.8,67.9C-13.5,66.5,-27,68.4,-38.2,64C-49.4,59.7,-58.2,49.2,-58.9,37.5C-59.6,25.8,-52.3,12.9,-55.2,-1.7C-58.1,-16.3,-71.3,-32.5,-70.7,-44.4C-70,-56.2,-55.5,-63.6,-41.4,-62.9C-27.3,-62.1,-13.7,-53.2,-2.5,-48.9C8.7,-44.6,17.4,-44.9,22.8,-40.6Z" transform="translate(100 100)" />
</svg>
