<?xml version="1.0" standalone="no"?><svg xmlns="http://www.w3.org/2000/svg" viewBox="0 0 1440 320"><path fill="#a2d9f0" fill-opacity="0.4" d="M0,96L40,122.7C80,149,160,203,240,218.7C320,235,400,213,480,218.7C560,224,640,256,720,240C800,224,880,160,960,138.7C1040,117,1120,139,1200,138.7C1280,139,1360,117,1400,106.7L1440,96L1440,320L1400,320C1360,320,1280,320,1200,320C1120,320,1040,320,960,320C880,320,800,320,720,320C640,320,560,320,480,320C400,320,320,320,240,320C160,320,80,320,40,320L0,320Z"></path></svg>